<svg id="Layer_1" data-name="Layer 1" xmlns="http://www.w3.org/2000/svg" viewBox="0 0 1184.94 491.06"><defs><style>.cls-1{fill:#fe4203;}</style></defs><path d="M563.75,1026.53c-29.4-.21-55.27-4.44-79.57-15.81-39.17-18.32-64.87-48-73.42-90.78-7.38-36.94-2.52-72.23,18.73-104.18,15.46-23.25,37.11-38.87,62.87-49,19.74-7.79,40.31-11.45,61.5-12.14,22.71-.73,45,1.77,66.63,8.85,29,9.47,53.35,25.5,71.12,50.67,12.76,18.08,19.8,38.31,22.06,60.26,2.43,23.66,0,46.73-9.11,68.84-11.93,28.92-32.49,49.91-60,64.27-20.69,10.79-42.87,16.38-66,18.22C572.67,1026.16,566.84,1026.36,563.75,1026.53ZM466.83,890.41a192.15,192.15,0,0,0,3,35.76c3.31,18.62,9.05,36.4,19.28,52.45,15.94,25,38.23,39.63,68.41,40.81,22.76.89,42.83-6,59.64-21.55,12.07-11.18,20.35-24.91,26.38-40.09,8.24-20.75,11.62-42.43,11.92-64.63.28-20.65-2.25-40.94-8.6-60.67-4.74-14.71-11.43-28.42-21.31-40.42-14.59-17.73-33.14-28.22-56.19-30.28-21.81-1.94-41.73,3-59.12,16.69-13.64,10.73-23,24.69-29.83,40.46C470.58,841.74,466.89,865.74,466.83,890.41Z" transform="translate(-407.53 -754.47)"/><path d="M1326,871.85h54c-.52,5.78-1.17,11.4-1.49,17-.63,10.92-1.51,21.84-1.54,32.76q-.33,105.12-.31,210.24,0,20.61,0,41.23,0,36-29.61,56.51c-9.12,6.34-23.56,13.18-33.66,15.9l-2.63-4.74c1.72-1.38,3.36-2.64,4.93-4,7.24-6.09,10.82-14.17,11.94-23.31a172,172,0,0,0,1.46-20.52c.14-36.12,0-72.24.08-108.36q.08-79.47.22-158.93a425.71,425.71,0,0,0-3.36-52.8C1326,872.6,1326,872.29,1326,871.85Z" transform="translate(-407.53 -754.47)"/><path d="M1172.42,905.58c4.17-5.51,7.69-10.75,11.79-15.48,13.52-15.57,30.57-24,51.31-24.73a70.74,70.74,0,0,1,21.84,2.22c14.81,4.18,24.12,14,29.13,28.33,3.63,10.38,4.72,21.15,4.82,32.06,0,5.75.06,11.5,0,17.26-.26,27.17.08,54.31,3.38,81.33,0,.39,0,.79.08,1.37h-54c.21-2.53.49-5,.62-7.54.82-15.7,2-31.39,2.32-47.1.43-20,.31-40.12.17-60.17a81.06,81.06,0,0,0-1.66-16.15c-3.13-14.89-13.66-21.41-28.59-18.31-11,2.29-19.33,8.81-26.58,17a105.48,105.48,0,0,0-14.23,21.25,6.57,6.57,0,0,0-.64,3c0,22.38-.27,44.76.26,67.12.31,12.91,1.94,25.78,3,38.67.06.71.14,1.42.22,2.32H1122a991.12,991.12,0,0,0,0-156.12h53.63C1174.53,883,1173.49,894.05,1172.42,905.58Z" transform="translate(-407.53 -754.47)"/><path d="M1084.58,1028h-49c-1-10.38-2.11-20.74-3.18-31.27-.9,1.87-1.71,3.71-2.64,5.5-9.29,17.89-24.46,27.58-43.9,31-15.76,2.74-31.38,2.16-46.46-3.78-11.56-4.54-20.7-11.88-24.78-24-5.79-17.23-1.75-37.67,17.67-50.72C943.5,947.17,956,942.87,969,939.87c11.43-2.64,23-4.63,34.41-7.34a77.77,77.77,0,0,0,14.82-5.32c10.38-4.87,14.63-13.67,14.25-24.74a55,55,0,0,0-2.13-13.64c-2.94-9.84-10.44-15.42-20.64-16.16-16.24-1.17-29.45,4.37-39.19,17.61-3.27,4.44-6.35,9-9.67,13.41-4.42,5.82-10.11,9.79-17.52,10.67-11.21,1.32-20-4.64-23.74-15.79-1.44-4.31-1.47-4.36,2.36-6.71,26.53-16.27,55.2-25.57,86.45-26.46,13.9-.4,27.64.51,40.85,5.31,19.23,7,30,21.44,30.43,41.84.4,18.29.27,36.59.21,54.89-.06,19.6,1,39.1,4.5,58.42C1084.47,1026.49,1084.49,1027.13,1084.58,1028ZM1032.41,925.7c-7.68,7.94-17.67,10.15-27.28,13.22-5.08,1.63-10.24,3.15-15.12,5.27-11.49,5-20.25,12.82-23.81,25.25a52.16,52.16,0,0,0,.8,31.82c3.27,9.53,9.89,15.63,20,17,12,1.67,22.48-1.87,30.87-10.72,9.35-9.85,13.47-22.09,14.1-35.28.72-15.07.4-30.18.53-45.28C1032.54,926.73,1032.49,926.44,1032.41,925.7Z" transform="translate(-407.53 -754.47)"/><path d="M1585.61,933.26h-125.4c-.15,1.67-.35,3.14-.4,4.63-.53,15.68.68,31.13,6.53,45.9,5.2,13.13,13.11,24.11,25.6,31.25,20.24,11.56,48.3,9.16,67.26-5.7,12.67-9.94,20.53-23.21,26.08-38,1.61-4.31,1.71-4.38,7.19-3.49-3.61,12.19-8.64,23.67-16.16,34-14.09,19.3-33.43,29.41-56.88,32-22.2,2.49-43.75-.14-64.1-9.66-23.37-10.93-39.55-28.37-45.19-54-6-27.06-1.4-52.15,17.07-73.65,12.42-14.46,28.53-23.17,46.88-27.74,22.09-5.5,44.09-5.16,65.49,3s36.52,22.59,43,45C1584.09,922,1584.59,927.54,1585.61,933.26ZM1534.89,926c.07-.66.17-1.2.17-1.74a97.8,97.8,0,0,0-3-24.63c-2-7.42-5-14.35-10.7-19.72-11.26-10.57-31.22-9.77-43,1.6-7.66,7.43-11.82,16.75-14.4,26.84-1.47,5.74-2.38,11.61-3.59,17.65Z" transform="translate(-407.53 -754.47)"/><path d="M756.6,871.83h53.34q-1.76,23-3.49,46l.89.31c.52-.6,1.07-1.19,1.58-1.8,8.29-10,16.62-20,26.52-28.62,16.9-14.6,36.37-20,58.36-16.57,1,.15,1.9.25,2.85.4.46.08.92.22,1.53.37,1,5.55,1.17,11.08-.62,16.52-2.9,8.87-11.19,14.07-20.83,12.8a75.3,75.3,0,0,1-12.11-2.77c-9.89-3-19.07-1.68-27.79,3.7s-15.89,12.33-23,19.52a2.74,2.74,0,0,1-.32.36c-5.93,4.25-7.15,10-6.83,17.09.53,12,.13,24,.15,35.95a402.91,402.91,0,0,0,3.37,51.84c0,.3,0,.61,0,1.08H756.64A973.65,973.65,0,0,0,756.6,871.83Z" transform="translate(-407.53 -754.47)"/><path d="M530.93,1162c.38,15.61.75,31.06,1.13,46.69H508.83q2.37-50.58,0-101.32a2.39,2.39,0,0,1,.68-.14c12.63,0,25.27-.13,37.9.13,7.83.16,15.61,1.19,23,4.19,15.5,6.32,20.91,25.56,10.73,38.37-4.74,6-11.47,8.44-18.6,10-3.17.69-6.41,1.1-10,1.69,1.91.54,3.51,1,5.09,1.46,11,3.56,18.16,11.17,22.57,21.65,1.24,2.93,2.56,5.85,4,8.69,4,7.85,9.7,13.28,19.1,13,.17.28.31.41.32.55,0,.55,0,1.1,0,1.6-.23.12-.36.26-.5.26a89.17,89.17,0,0,1-23.1-2c-10.73-2.54-17.85-9.11-21.48-19.53-1.39-4-2.82-8-4.54-11.83C549.1,1164.47,543.69,1161.28,530.93,1162Zm.38-2.43c5.58-.39,11-.3,16.2-1.24,8.86-1.59,14.18-7.21,15.88-16.08a36.43,36.43,0,0,0,.76-6.89c0-8.2-1.17-16.1-8.57-21.27s-15.88-4.13-24.27-4.23Z" transform="translate(-407.53 -754.47)"/><path d="M868.63,1161.42c3.66,1.55,7.85,2.93,11.65,5,7.38,4.07,11.93,10.67,15.17,18.28,1.12,2.64,2.32,5.25,3.57,7.83,4,8.2,9.69,14.1,19.76,13.81v2.48c-10.51-.08-21,0-30.74-4.68-7.29-3.46-11.59-9.52-14.27-16.94-1.46-4-2.89-8.12-4.65-12-4.81-10.73-10.56-14.06-23-13.19.38,15.49.75,31,1.13,46.67H824.06q2.38-50.64,0-101.33a1.18,1.18,0,0,1,.47-.14c12.72,0,25.43-.14,38.14.12,7.84.16,15.62,1.2,23,4.21,15.47,6.32,20.86,25.6,10.66,38.38-4.75,5.95-11.48,8.42-18.62,10C874.58,1160.56,871.4,1161,868.63,1161.42Zm-22.09-1.9c5.57-.39,11-.32,16.19-1.23,8.45-1.47,13.76-6.75,15.72-15.14a37.45,37.45,0,0,0,0-17.33c-1.17-5-3.57-9.21-8-12.06-7.41-4.76-15.66-3.85-23.9-4Z" transform="translate(-407.53 -754.47)"/><path d="M805.36,1132.89l-20.05,5.56a84.51,84.51,0,0,0-2.21-8.64,71.5,71.5,0,0,0-5-11.59c-8.72-14.89-25.83-12.48-34.48-4-6.29,6.16-9.64,13.84-11.47,22.22-3.37,15.37-3.1,30.61,2.54,45.47,3.08,8.13,8,14.95,15.85,19.14,12.32,6.57,32.17,5.2,42.15-12.8,4.67-8.42,6.47-17.61,7.13-27.09a2.19,2.19,0,0,0-.15-.65,54.9,54.9,0,0,0-33.44,7.19l-7.27-10h55.22v2.47H803.66c.45,16.25.9,32.24,1.36,48.4h-6.43c.54-10.13,1.08-20.15,1.61-30.17l-.62-.11c-.38,1.22-.76,2.45-1.15,3.67-4.16,12.68-11.29,22.87-24.55,27.12-19,6.11-45.12,1.27-58-19.82-11.46-18.76-12.83-38.69-2.72-58.43,8-15.54,21.91-23.18,38.86-25.52,11.59-1.6,22.8-.25,33.16,5.66C794.14,1116.06,800.45,1123.62,805.36,1132.89Z" transform="translate(-407.53 -754.47)"/><path d="M1027.22,1113.47c.74,31.68-1,63.39,1.35,95.2h-4.5c1.48-33.77,1.45-67.43,0-101.5H1026c7.11,0,14.23.06,21.34,0a3.23,3.23,0,0,1,3.32,2q25.35,45.78,50.81,91.49a7.63,7.63,0,0,0,1.52,2c-.27-31.7,1.16-63.39-.79-95.25h4.36c-1.48,33.74-1.44,67.4,0,101.45h-2.22c-6.88,0-13.75-.09-20.63.06a3.77,3.77,0,0,1-3.86-2.32q-19.39-35-38.87-69.9L1029,1115.34c-.38-.69-.8-1.34-1.2-2Z" transform="translate(-407.53 -754.47)"/><path d="M1221.23,1165.89c-3.18,12.81-7.8,24.83-17.69,34.12a40.91,40.91,0,0,1-25,10.94c-12.21,1.13-24-.55-34.7-6.8-14.79-8.61-22.18-22-24.35-38.61-1.36-10.37-.65-20.61,3.56-30.32,7.22-16.66,20.28-26.09,37.83-29.43,12.33-2.34,24.36-1.35,35.51,5.07,9.48,5.46,15.77,13.72,20.58,23.58l-20.24,5.48a58.79,58.79,0,0,0-1.47-6.6c-1.72-5-3.12-10.12-5.58-14.69-8-14.81-24-13.13-32.84-5.47-6.52,5.68-10.06,13.13-12.07,21.32-4,16.1-3.9,32.14,2.06,47.78,4.5,11.8,12.53,20.1,25.47,22.13,15.19,2.38,27.46-2.84,36.5-15.37,4.69-6.51,7.49-13.87,9.42-21.58C1218.69,1165.63,1219.47,1165.23,1221.23,1165.89Z" transform="translate(-407.53 -754.47)"/><path d="M638.45,1107.17H650c3.44,0,6.89.18,10.31-.06,2.42-.18,3.21.78,3.81,3q11.64,42.6,23.52,85.13c1.28,4.57,3.22,9,4.88,13.48H667.25c-1.31-12.5-6-24.12-8.76-36.31-8.94,0-17.65,0-26.36,0-2.3,0-5.24-.71-6.73.43s-1.53,4.15-2.13,6.37c-2.14,7.94-4.28,15.87-6.33,23.83-.48,1.83-.62,3.74-.93,5.71h-4.2c2.16-7.32,4.43-14.6,6.46-22q9.69-35.05,19.17-70.18C638.23,1113.68,638.12,1110.53,638.45,1107.17Zm3.44,5.84-.62,0-15.39,56.6h31.71C652.32,1150.58,647.1,1131.79,641.89,1113Z" transform="translate(-407.53 -754.47)"/><path d="M953.75,1107.17c7.44,0,15.43,0,23.41.08.63,0,1.58,1.11,1.79,1.87,3.07,10.74,6,21.51,9,32.27,5,17.92,9.84,35.86,14.91,53.74,1.3,4.57,3.22,9,4.89,13.52H982.51c-1.25-11.67-5.47-22.67-8.23-34-.41-1.68-1-2.3-2.84-2.28-9.67.1-19.35,0-29,.05-1.08,0-2.09-.25-2.52,1.39-2.5,9.74-5.16,19.43-7.7,29.16-.48,1.83-.63,3.76-1,5.76h-4.48c0-.15-.15-.33-.11-.44,6.55-16.27,9.82-33.5,14.72-50.26,4-13.63,7.61-27.36,11.21-41.09C953.37,1113.9,953.35,1110.69,953.75,1107.17Zm19.09,62.45c-5.31-19.11-10.52-37.88-15.73-56.65h-.6c-5.11,18.82-10.23,37.64-15.4,56.65Z" transform="translate(-407.53 -754.47)"/><path d="M1233.27,1107.29H1302c-2.45,3.45-4.77,6.71-7.26,10.19-5.89-3.42-12.06-6.11-18.77-6.83s-13.21-.79-20-1.16v44.67l31.88-1.18v4.52l-31.89-1.21v49.51c16.59,1.06,32.93.09,48.46-7l.28.57c-1.39,2.91-2.69,5.87-4.22,8.71-.27.5-1.48.7-2.25.7-11.52,0-23,0-34.54,0h-30.37C1235,1174.86,1235,1141.14,1233.27,1107.29Z" transform="translate(-407.53 -754.47)"/><path d="M489.65,1117.61c-12.75-8.36-26.91-8.14-41.27-7.68v48.55l32.29-1.18v4.51l-32.75-1.22c.38,16.36.75,32.19,1.12,48.13h-23.3c1.72-33.8,1.68-67.52,0-101.39H497Z" transform="translate(-407.53 -754.47)"/><path class="cls-1" d="M1353,853.85c-6.55,0-13.11,0-19.66,0-4,0-5.69-1.34-5.75-5.34-.18-11.66-.18-23.32-.15-35,0-3,1.38-4.51,4.41-4.58,8.54-.18,17.08-.15,25.62-.19,4,0,8,0,12,0,.32,0,.64-.09,1-.11,6.6-.41,8.09,1,8.1,7.63q0,15.81,0,31.62c0,4.38-1.52,5.92-5.89,5.93C1366.05,853.86,1359.5,853.85,1353,853.85Zm10-22.69a11.15,11.15,0,0,0-11-10.75c-5.65.11-10.89,5.5-10.79,11.07s5.63,10.82,11.23,10.57C1358.22,841.8,1363.13,836.74,1362.94,831.16Z" transform="translate(-407.53 -754.47)"/><path class="cls-1" d="M1377.78,861a9.12,9.12,0,0,1-7.34,2.93q-18.33-.1-36.68-.12a6.85,6.85,0,0,1-5.5-2.83,6.7,6.7,0,0,1,6.43-3.64c12.38.17,24.77.14,37.16.07C1374.66,857.39,1376.09,859.2,1377.78,861Z" transform="translate(-407.53 -754.47)"/><path class="cls-1" d="M488,964.9c6.38,1.28,12.65,2.76,19,3.77,12.81,2.05,25.47.65,38-2.17,15.1-3.4,29.34-9.24,43.48-15.37,9.75-4.23,19.59-8.18,30.23-9.59a51.82,51.82,0,0,1,22.16,1.69,77.18,77.18,0,0,1-6.2,19.88c-11.78,25-30.69,41.86-57.86,48.16-26.86,6.24-50.37-1.17-70.55-19.58a71.55,71.55,0,0,1-17.71-25.33C488.31,965.85,488.13,965.32,488,964.9Z" transform="translate(-407.53 -754.47)"/></svg>